<?xml version="1.0" encoding="utf-8"?>
<!-- Generator: Adobe Illustrator 24.1.1, SVG Export Plug-In . SVG Version: 6.00 Build 0)  -->
<svg version="1.1" id="swipe-left" xmlns:sketch="http://www.bohemiancoding.com/sketch/ns"
	 xmlns="http://www.w3.org/2000/svg" xmlns:xlink="http://www.w3.org/1999/xlink" x="0px" y="0px" viewBox="0 0 30 30"
	 style="enable-background:new 0 0 30 30;" xml:space="preserve">
<style type="text/css">
	.st0{fill-rule:evenodd;clip-rule:evenodd;}
</style>
<path id="hand" sketch:type="MSShapeGroup" class="st0" d="M14.6,12c-0.3,0.2-0.6,0.6-0.7,0.9c-0.7-0.5-1.6-0.5-2.3,0
	c-0.3,0.2-0.5,0.5-0.7,0.8l-2.5-3.5C7.8,9.4,6.5,9.2,5.6,9.8c-0.9,0.6-1.1,1.9-0.4,2.8l5.7,7.9l-1.8-0.8c-1-0.4-2.2,0-2.6,1
	c-0.4,1,0,2.2,1,2.6c0.2,0.1,1.1,0.5,1.3,0.6c1.4,0.6,3,2.3,4.4,3c2,0.9,4.9,1.8,5.1,1.9c0.3,0.1,0.5-0.1,0.6-0.3
	c0.1-0.3-0.1-0.5-0.3-0.6c-0.2-0.1-3.4-1.1-5-1.9c-1.1-0.5-2.9-2.3-4.4-3c-0.2-0.1-1.1-0.5-1.3-0.6c-0.5-0.2-0.7-0.8-0.5-1.3
	c0.2-0.5,0.8-0.7,1.3-0.5l3.4,1.5c0.4,0.2,1-0.3,0.7-0.8L6,12c-0.3-0.4-0.2-1.1,0.2-1.4c0.4-0.3,1.1-0.2,1.4,0.2l5,6.9
	c0.2,0.2,0.5,0.3,0.7,0.1c0.2-0.2,0.3-0.5,0.1-0.7l-1.5-2c-0.3-0.4-0.2-1.1,0.2-1.4c0.4-0.3,1.1-0.2,1.4,0.2l1.5,2
	c0.2,0.2,0.5,0.3,0.7,0.1c0.2-0.2,0.3-0.5,0.1-0.7L15,14.2c-0.3-0.4-0.2-1.1,0.2-1.4c0.4-0.3,1.1-0.2,1.4,0.2l1.5,2
	c0.2,0.2,0.5,0.3,0.7,0.1s0.3-0.5,0.1-0.7L18,13.2c-0.3-0.4-0.2-1.1,0.2-1.4c0.4-0.3,1.1-0.2,1.4,0.2l2.1,2.8
	c1.9,2.6,2.1,6.3,3.7,8.5c0.2,0.2,0.5,0.3,0.7,0.1c0.2-0.2,0.3-0.5,0.1-0.7c-1.3-1.8-1.7-5.8-3.7-8.5l-2.1-2.8
	c-0.6-0.9-1.9-1.1-2.8-0.4c-0.3,0.2-0.6,0.6-0.7,0.9C16.3,11.5,15.3,11.5,14.6,12z"/>
<path id="arrow" sketch:type="MSShapeGroup" class="st0" d="M11.9,5.5C12,5.7,12,6,11.9,6.2c-0.2,0.2-0.5,0.2-0.7,0l-2-2
	C9,4,9,3.7,9.1,3.5l2-2c0.2-0.2,0.5-0.2,0.7,0C12,1.7,12,2,11.9,2.2l-1.1,1.1h9.8c0.3,0,0.5,0.2,0.5,0.5s-0.2,0.5-0.5,0.5h-9.8
	L11.9,5.5z"/>
</svg>
