<?xml version="1.0" encoding="utf-8"?>
<!-- Generator: Adobe Illustrator 24.1.1, SVG Export Plug-In . SVG Version: 6.00 Build 0)  -->
<svg version="1.1" id="swipe-icon" xmlns="http://www.w3.org/2000/svg" xmlns:xlink="http://www.w3.org/1999/xlink" x="0px" y="0px"
	 viewBox="0 0 60 75" style="enable-background:new 0 0 60 75;" xml:space="preserve">
<path id="hand" d="M50.3,30.1c-1.1,0-2.1,0.3-2.9,0.8c-0.9-1.9-2.8-3.2-5-3.2c-1.1,0-2.1,0.3-2.9,0.8c-0.9-1.9-2.8-3.2-5-3.2
	c-0.8,0-1.7,0.2-2.4,0.5v-15c0-3.1-2.5-5.5-5.5-5.5s-5.5,2.5-5.5,5.5v25l-1.7-3.5c-0.8-2.1-2.9-3.6-5.2-3.6c-0.6,0-1.3,0.1-1.9,0.3
	c-1.4,0.5-2.5,1.5-3.1,2.9c-0.6,1.3-0.7,2.8-0.2,4.2c0,0,0,0.1,0.1,0.1l11.5,24.4c0,0.1,0.1,0.1,0.1,0.2c1.2,1.8,2.6,3.4,4.3,4.8
	c0.1,0.1,0.2,0.1,0.3,0.2l0,0c0.1,0.1,0.1,0.1,0.2,0.2c3.3,2.4,7.2,3.7,11.3,3.7c10.2,0,18.6-8,19-18.1c0,0,0-0.1,0-0.2
	c0-0.3,0-0.6,0-0.9c0-0.1,0-0.1,0-0.2v-0.2c0-0.2,0-0.3,0-0.5v-14C55.9,32.6,53.4,30.1,50.3,30.1z M36.8,66.6c-3.4,0-6.6-1-9.3-3
	l-0.2-0.2c-0.2-0.2-0.4-0.3-0.6-0.4c-1.3-1.1-2.4-2.3-3.3-3.7L12,35.1c-0.2-0.6-0.2-1.2,0.1-1.8c0.3-0.6,0.7-1,1.3-1.2
	c1.2-0.4,2.6,0.2,3,1.4c0,0,0,0.1,0.1,0.1l4.7,10c0.3,0.7,1.1,1,1.8,0.9c0.7-0.2,1.2-0.8,1.2-1.5V10.8c0-1.3,1.1-2.4,2.4-2.4
	c1.3,0,2.4,1.1,2.4,2.4v20c0,0.9,0.7,1.6,1.6,1.6s1.6-0.7,1.6-1.6c0-1.3,1.1-2.4,2.4-2.4c1.3,0,2.4,1.1,2.4,2.4v2.4
	c0,0.9,0.7,1.6,1.6,1.6c0.9,0,1.6-0.7,1.6-1.6c0-1.3,1.1-2.4,2.4-2.4s2.4,1.1,2.4,2.4v2.4c0,0.9,0.7,1.6,1.6,1.6s1.6-0.7,1.6-1.6
	c0-1.3,1.1-2.4,2.4-2.4s2.4,1.1,2.4,2.4v14.3v0.4c0,0.2,0,0.3,0,0.5c0,0.3,0,0.5,0,0.8C52.2,60,45.3,66.6,36.8,66.6z"/>
<path id="arrow-l" d="M17.4,11.5H9.5l1.8-1.8c0.6-0.6,0.6-1.6,0-2.2s-1.6-0.6-2.2,0L4.6,12l0,0c-0.2,0.2-0.3,0.3-0.3,0.5
	c-0.2,0.4-0.2,0.8,0,1.2c0.1,0.2,0.2,0.4,0.3,0.5l0,0l4.5,4.5c0.3,0.3,0.7,0.5,1.1,0.5s0.8-0.2,1.1-0.5c0.6-0.6,0.6-1.6,0-2.2
	l-1.8-1.8h7.9c0.9,0,1.6-0.7,1.6-1.6C19,12.2,18.3,11.5,17.4,11.5z"/>
<path id="arrow-r" d="M49,12.5c-0.1-0.2-0.2-0.4-0.3-0.5l0,0l-4.5-4.5c-0.6-0.6-1.6-0.6-2.2,0c-0.6,0.6-0.6,1.6,0,2.2l1.8,1.8h-7.9
	c-0.9,0-1.6,0.7-1.6,1.6s0.7,1.6,1.6,1.6h7.8l-1.8,1.8c-0.6,0.6-0.6,1.6,0,2.2c0.3,0.3,0.7,0.5,1.1,0.5s0.8-0.2,1.1-0.5l4.5-4.5l0,0
	c0.2-0.2,0.3-0.3,0.3-0.5C49.1,13.3,49.1,12.9,49,12.5z"/>
</svg>
